<svg width="30" height="30" viewBox="0 0 30 30" fill="none" xmlns="http://www.w3.org/2000/svg">
<g clip-path="url(#clip0)">
<path d="M15 30.002C23.2843 30.002 30 23.2862 30 15.002C30 6.71768 23.2843 0.00195312 15 0.00195312C6.71573 0.00195312 0 6.71768 0 15.002C0 23.2862 6.71573 30.002 15 30.002Z" fill="#1977F3"/>
<path d="M20.8387 19.3389L21.5031 15.002H17.3434V12.1881C17.3434 11.0026 17.9235 9.84452 19.7882 9.84452H21.6803V6.15307C21.6803 6.15307 19.9633 5.85986 18.3221 5.85986C14.8965 5.85986 12.6563 7.93551 12.6563 11.6966V15.002H8.84668V19.3389H12.6563V29.8205C13.4199 29.9407 14.2025 30.0019 14.9998 30.0019C15.7972 30.0019 16.5798 29.9386 17.3434 29.8205V19.3389H20.8387Z" fill="white"/>
</g>
<defs>
<clipPath id="clip0">
<rect width="30" height="30" fill="white"/>
</clipPath>
</defs>
</svg>
